<mxfile host="app.diagrams.net" modified="2021-10-28T12:16:08.093Z" agent="5.0 (Macintosh; Intel Mac OS X 10_15_7) AppleWebKit/537.36 (KHTML, like Gecko) Chrome/89.0.4389.90 Safari/537.36" etag="5FbD6hmDGOGoJvJwzEdX" version="14.7.3" type="github">
  <diagram name="Page-1" id="e7e014a7-5840-1c2e-5031-d8a46d1fe8dd">
    <mxGraphModel dx="2595" dy="803" grid="1" gridSize="10" guides="1" tooltips="1" connect="1" arrows="1" fold="1" page="1" pageScale="1" pageWidth="1169" pageHeight="826" background="#ffffff" math="0" shadow="0">
      <root>
        <mxCell id="0" />
        <mxCell id="1" parent="0" />
        <mxCell id="aWE_fqBYEXQU9oCvTYkU-18" value="" style="shape=flexArrow;endArrow=classic;html=1;strokeWidth=1;endSize=6;shadow=0;sketch=0;rounded=1;arcSize=20;endWidth=30;width=30;" parent="1" edge="1">
          <mxGeometry width="50" height="50" relative="1" as="geometry">
            <mxPoint x="-1050" y="343" as="sourcePoint" />
            <mxPoint x="-900" y="343" as="targetPoint" />
          </mxGeometry>
        </mxCell>
        <mxCell id="aWE_fqBYEXQU9oCvTYkU-20" value="2020年9-10双月" style="edgeLabel;html=1;align=center;verticalAlign=middle;resizable=0;points=[];" parent="aWE_fqBYEXQU9oCvTYkU-18" vertex="1" connectable="0">
          <mxGeometry x="-0.0933" y="-2" relative="1" as="geometry">
            <mxPoint y="-2" as="offset" />
          </mxGeometry>
        </mxCell>
        <mxCell id="aWE_fqBYEXQU9oCvTYkU-21" value="" style="shape=flexArrow;endArrow=classic;html=1;strokeWidth=1;endSize=6;shadow=0;sketch=0;rounded=1;arcSize=20;endWidth=30;width=30;" parent="1" edge="1">
          <mxGeometry width="50" height="50" relative="1" as="geometry">
            <mxPoint x="-880" y="343" as="sourcePoint" />
            <mxPoint x="-730" y="343" as="targetPoint" />
          </mxGeometry>
        </mxCell>
        <mxCell id="aWE_fqBYEXQU9oCvTYkU-22" value="2020年11-12双月" style="edgeLabel;html=1;align=center;verticalAlign=middle;resizable=0;points=[];" parent="aWE_fqBYEXQU9oCvTYkU-21" vertex="1" connectable="0">
          <mxGeometry x="-0.0933" y="-2" relative="1" as="geometry">
            <mxPoint y="-2" as="offset" />
          </mxGeometry>
        </mxCell>
        <mxCell id="aWE_fqBYEXQU9oCvTYkU-25" value="" style="shape=flexArrow;endArrow=classic;html=1;strokeWidth=1;endSize=6;shadow=0;sketch=0;rounded=1;arcSize=20;endWidth=30;width=30;" parent="1" edge="1">
          <mxGeometry width="50" height="50" relative="1" as="geometry">
            <mxPoint x="-540" y="343" as="sourcePoint" />
            <mxPoint x="-390" y="343" as="targetPoint" />
          </mxGeometry>
        </mxCell>
        <mxCell id="aWE_fqBYEXQU9oCvTYkU-26" value="2021年3-4，5-6双月" style="edgeLabel;html=1;align=center;verticalAlign=middle;resizable=0;points=[];" parent="aWE_fqBYEXQU9oCvTYkU-25" vertex="1" connectable="0">
          <mxGeometry x="-0.0933" y="-2" relative="1" as="geometry">
            <mxPoint y="-2" as="offset" />
          </mxGeometry>
        </mxCell>
        <mxCell id="aWE_fqBYEXQU9oCvTYkU-27" value="" style="shape=flexArrow;endArrow=classic;html=1;strokeWidth=1;endSize=6;shadow=0;sketch=0;rounded=1;arcSize=20;endWidth=30;width=30;" parent="1" edge="1">
          <mxGeometry width="50" height="50" relative="1" as="geometry">
            <mxPoint x="-710" y="343" as="sourcePoint" />
            <mxPoint x="-560" y="343" as="targetPoint" />
          </mxGeometry>
        </mxCell>
        <mxCell id="aWE_fqBYEXQU9oCvTYkU-28" value="2021年1-2双月" style="edgeLabel;html=1;align=center;verticalAlign=middle;resizable=0;points=[];" parent="aWE_fqBYEXQU9oCvTYkU-27" vertex="1" connectable="0">
          <mxGeometry x="-0.0933" y="-2" relative="1" as="geometry">
            <mxPoint y="-2" as="offset" />
          </mxGeometry>
        </mxCell>
        <mxCell id="aWE_fqBYEXQU9oCvTYkU-29" value="" style="endArrow=classic;html=1;shadow=0;endSize=6;strokeWidth=1;" parent="1" edge="1">
          <mxGeometry width="50" height="50" relative="1" as="geometry">
            <mxPoint x="-990" y="393" as="sourcePoint" />
            <mxPoint x="-990" y="363" as="targetPoint" />
          </mxGeometry>
        </mxCell>
        <mxCell id="aWE_fqBYEXQU9oCvTYkU-30" value="" style="shape=flexArrow;endArrow=classic;html=1;strokeWidth=1;endSize=6;shadow=0;sketch=0;rounded=1;arcSize=20;endWidth=30;width=30;" parent="1" edge="1">
          <mxGeometry width="50" height="50" relative="1" as="geometry">
            <mxPoint x="-370" y="343" as="sourcePoint" />
            <mxPoint x="-220" y="343" as="targetPoint" />
          </mxGeometry>
        </mxCell>
        <mxCell id="aWE_fqBYEXQU9oCvTYkU-31" value="2021年7-8双月" style="edgeLabel;html=1;align=center;verticalAlign=middle;resizable=0;points=[];" parent="aWE_fqBYEXQU9oCvTYkU-30" vertex="1" connectable="0">
          <mxGeometry x="-0.0933" y="-2" relative="1" as="geometry">
            <mxPoint y="-2" as="offset" />
          </mxGeometry>
        </mxCell>
        <mxCell id="aWE_fqBYEXQU9oCvTYkU-32" value="" style="shape=flexArrow;endArrow=classic;html=1;strokeWidth=1;endSize=6;shadow=0;sketch=0;rounded=1;arcSize=20;endWidth=30;width=30;" parent="1" edge="1">
          <mxGeometry width="50" height="50" relative="1" as="geometry">
            <mxPoint x="-200" y="343" as="sourcePoint" />
            <mxPoint x="-50" y="343" as="targetPoint" />
          </mxGeometry>
        </mxCell>
        <mxCell id="aWE_fqBYEXQU9oCvTYkU-33" value="2021年9-10双月" style="edgeLabel;html=1;align=center;verticalAlign=middle;resizable=0;points=[];" parent="aWE_fqBYEXQU9oCvTYkU-32" vertex="1" connectable="0">
          <mxGeometry x="-0.0933" y="-2" relative="1" as="geometry">
            <mxPoint y="-2" as="offset" />
          </mxGeometry>
        </mxCell>
        <mxCell id="aWE_fqBYEXQU9oCvTYkU-34" value="资源团队成立，总人数3人" style="text;html=1;strokeColor=none;fillColor=none;align=center;verticalAlign=middle;whiteSpace=wrap;rounded=0;" parent="1" vertex="1">
          <mxGeometry x="-1060" y="393" width="150" height="20" as="geometry" />
        </mxCell>
        <mxCell id="aWE_fqBYEXQU9oCvTYkU-35" value="" style="endArrow=classic;html=1;shadow=0;endSize=6;strokeWidth=1;" parent="1" edge="1">
          <mxGeometry width="50" height="50" relative="1" as="geometry">
            <mxPoint x="-990" y="293" as="sourcePoint" />
            <mxPoint x="-990" y="323" as="targetPoint" />
          </mxGeometry>
        </mxCell>
        <mxCell id="aWE_fqBYEXQU9oCvTYkU-36" value="项目管理平台一期" style="text;html=1;strokeColor=none;fillColor=none;align=center;verticalAlign=middle;whiteSpace=wrap;rounded=0;" parent="1" vertex="1">
          <mxGeometry x="-1050" y="273" width="140" height="20" as="geometry" />
        </mxCell>
        <mxCell id="aWE_fqBYEXQU9oCvTYkU-37" value="" style="endArrow=classic;html=1;shadow=0;endSize=6;strokeWidth=1;" parent="1" edge="1">
          <mxGeometry width="50" height="50" relative="1" as="geometry">
            <mxPoint x="-810" y="293" as="sourcePoint" />
            <mxPoint x="-810" y="323" as="targetPoint" />
          </mxGeometry>
        </mxCell>
        <mxCell id="aWE_fqBYEXQU9oCvTYkU-38" value="通用人群需求" style="text;html=1;strokeColor=none;fillColor=none;align=center;verticalAlign=middle;whiteSpace=wrap;rounded=0;" parent="1" vertex="1">
          <mxGeometry x="-880" y="273" width="140" height="20" as="geometry" />
        </mxCell>
        <mxCell id="aWE_fqBYEXQU9oCvTYkU-39" value="" style="endArrow=classic;html=1;shadow=0;endSize=6;strokeWidth=1;" parent="1" edge="1">
          <mxGeometry width="50" height="50" relative="1" as="geometry">
            <mxPoint x="-810" y="393" as="sourcePoint" />
            <mxPoint x="-810" y="363" as="targetPoint" />
          </mxGeometry>
        </mxCell>
        <mxCell id="aWE_fqBYEXQU9oCvTYkU-40" value="划分圈人方向，总人数5人" style="text;html=1;strokeColor=none;fillColor=none;align=center;verticalAlign=middle;whiteSpace=wrap;rounded=0;" parent="1" vertex="1">
          <mxGeometry x="-890" y="393" width="160" height="20" as="geometry" />
        </mxCell>
        <mxCell id="aWE_fqBYEXQU9oCvTYkU-41" value="" style="endArrow=classic;html=1;shadow=0;endSize=6;strokeWidth=1;" parent="1" edge="1">
          <mxGeometry width="50" height="50" relative="1" as="geometry">
            <mxPoint x="-640" y="293" as="sourcePoint" />
            <mxPoint x="-640" y="323" as="targetPoint" />
          </mxGeometry>
        </mxCell>
        <mxCell id="aWE_fqBYEXQU9oCvTYkU-42" value="接收banner B&amp;amp;C端业务" style="text;html=1;strokeColor=none;fillColor=none;align=center;verticalAlign=middle;whiteSpace=wrap;rounded=0;" parent="1" vertex="1">
          <mxGeometry x="-710" y="273" width="140" height="20" as="geometry" />
        </mxCell>
        <mxCell id="aWE_fqBYEXQU9oCvTYkU-43" value="" style="endArrow=classic;html=1;shadow=0;endSize=6;strokeWidth=1;" parent="1" edge="1">
          <mxGeometry width="50" height="50" relative="1" as="geometry">
            <mxPoint x="-640" y="393" as="sourcePoint" />
            <mxPoint x="-640" y="363" as="targetPoint" />
          </mxGeometry>
        </mxCell>
        <mxCell id="aWE_fqBYEXQU9oCvTYkU-44" value="划分资源功能方向，总人数6人" style="text;html=1;strokeColor=none;fillColor=none;align=center;verticalAlign=middle;whiteSpace=wrap;rounded=0;" parent="1" vertex="1">
          <mxGeometry x="-720" y="393" width="160" height="20" as="geometry" />
        </mxCell>
        <mxCell id="aWE_fqBYEXQU9oCvTYkU-45" value="" style="endArrow=classic;html=1;shadow=0;endSize=6;strokeWidth=1;" parent="1" edge="1">
          <mxGeometry width="50" height="50" relative="1" as="geometry">
            <mxPoint x="-470" y="293" as="sourcePoint" />
            <mxPoint x="-470" y="323" as="targetPoint" />
          </mxGeometry>
        </mxCell>
        <mxCell id="aWE_fqBYEXQU9oCvTYkU-46" value="接入商业化&lt;br&gt;dou+/内广资源" style="text;html=1;strokeColor=none;fillColor=none;align=center;verticalAlign=middle;whiteSpace=wrap;rounded=0;" parent="1" vertex="1">
          <mxGeometry x="-540" y="273" width="140" height="20" as="geometry" />
        </mxCell>
        <mxCell id="aWE_fqBYEXQU9oCvTYkU-51" value="" style="endArrow=classic;html=1;shadow=0;endSize=6;strokeWidth=1;" parent="1" edge="1">
          <mxGeometry width="50" height="50" relative="1" as="geometry">
            <mxPoint x="-300" y="293" as="sourcePoint" />
            <mxPoint x="-300" y="323" as="targetPoint" />
          </mxGeometry>
        </mxCell>
        <mxCell id="aWE_fqBYEXQU9oCvTYkU-52" value="接入抖音主端资源&lt;br&gt;飞盘重构启动&lt;br&gt;ROI计算项目进入研发" style="text;html=1;strokeColor=none;fillColor=none;align=center;verticalAlign=middle;whiteSpace=wrap;rounded=0;" parent="1" vertex="1">
          <mxGeometry x="-370" y="263" width="140" height="20" as="geometry" />
        </mxCell>
        <mxCell id="aWE_fqBYEXQU9oCvTYkU-53" value="" style="endArrow=classic;html=1;shadow=0;endSize=6;strokeWidth=1;" parent="1" edge="1">
          <mxGeometry width="50" height="50" relative="1" as="geometry">
            <mxPoint x="-130" y="293" as="sourcePoint" />
            <mxPoint x="-130" y="323" as="targetPoint" />
          </mxGeometry>
        </mxCell>
        <mxCell id="aWE_fqBYEXQU9oCvTYkU-54" value="资源精细化投放需求" style="text;html=1;strokeColor=none;fillColor=none;align=center;verticalAlign=middle;whiteSpace=wrap;rounded=0;" parent="1" vertex="1">
          <mxGeometry x="-200" y="273" width="140" height="20" as="geometry" />
        </mxCell>
        <mxCell id="aWE_fqBYEXQU9oCvTYkU-55" value="" style="endArrow=classic;html=1;shadow=0;endSize=6;strokeWidth=1;" parent="1" edge="1">
          <mxGeometry width="50" height="50" relative="1" as="geometry">
            <mxPoint x="-300" y="393" as="sourcePoint" />
            <mxPoint x="-300" y="363" as="targetPoint" />
          </mxGeometry>
        </mxCell>
        <mxCell id="aWE_fqBYEXQU9oCvTYkU-56" value="划分策略引擎和ROI计算方向&lt;br&gt;总人数11人" style="text;html=1;strokeColor=none;fillColor=none;align=center;verticalAlign=middle;whiteSpace=wrap;rounded=0;" parent="1" vertex="1">
          <mxGeometry x="-380" y="393" width="160" height="20" as="geometry" />
        </mxCell>
        <mxCell id="aWE_fqBYEXQU9oCvTYkU-57" value="" style="endArrow=classic;html=1;shadow=0;endSize=6;strokeWidth=1;" parent="1" edge="1">
          <mxGeometry width="50" height="50" relative="1" as="geometry">
            <mxPoint x="-130" y="393" as="sourcePoint" />
            <mxPoint x="-130" y="363" as="targetPoint" />
          </mxGeometry>
        </mxCell>
        <mxCell id="aWE_fqBYEXQU9oCvTYkU-58" value="计划划分资源分发子方向" style="text;html=1;strokeColor=none;fillColor=none;align=center;verticalAlign=middle;whiteSpace=wrap;rounded=0;" parent="1" vertex="1">
          <mxGeometry x="-210" y="393" width="160" height="20" as="geometry" />
        </mxCell>
      </root>
    </mxGraphModel>
  </diagram>
</mxfile>
